<?xml version="1.0" standalone="no"?>
<!DOCTYPE svg PUBLIC "-//W3C//DTD SVG 20010904//EN"
 "http://www.w3.org/TR/2001/REC-SVG-20010904/DTD/svg10.dtd">
<svg version="1.0" xmlns="http://www.w3.org/2000/svg"
 width="500.000000pt" height="500.000000pt" viewBox="0 0 500.000000 500.000000"
 preserveAspectRatio="xMidYMid meet">
<metadata>
Created by potrace 1.11, written by Peter Selinger 2001-2013
</metadata>
<g transform="translate(0.000000,500.000000) scale(0.100000,-0.100000)"
fill="#000000" stroke="none">
<path d="M1617 4564 c-1 -1 -24 -4 -52 -8 -60 -7 -194 -39 -250 -59 -147 -53
-255 -124 -408 -266 -82 -77 -186 -259 -202 -356 -11 -64 -13 -264 -4 -335 5
-36 11 -83 14 -105 3 -22 8 -58 10 -80 3 -22 9 -63 14 -92 9 -57 7 -169 -4
-241 -8 -53 -69 -200 -115 -275 -31 -51 -113 -122 -191 -165 -69 -38 -84 -47
-89 -52 -19 -19 -66 -31 -123 -32 -62 -1 -88 -10 -73 -25 3 -3 36 -7 73 -8 63
-1 75 -6 170 -60 57 -33 113 -68 126 -80 14 -11 39 -31 57 -45 39 -30 144
-236 160 -315 6 -29 12 -91 13 -137 1 -72 -2 -114 -18 -228 -2 -14 -7 -49 -10
-79 -4 -30 -9 -64 -11 -75 -10 -48 -12 -256 -3 -316 6 -36 11 -72 12 -80 4
-26 75 -169 109 -218 49 -72 178 -193 273 -258 111 -75 336 -154 481 -169 38
-4 72 -9 76 -11 3 -2 9 0 13 6 3 5 0 10 -7 11 -7 0 -20 2 -28 4 -47 10 -79 16
-107 20 -67 10 -180 66 -240 120 -6 5 -26 21 -44 35 -114 86 -192 202 -238
355 -23 76 -25 85 -37 166 -12 86 -8 226 10 329 9 50 29 243 29 275 0 27 -12
135 -17 160 -16 75 -104 226 -164 283 -58 55 -276 200 -366 243 -119 59 -113
106 21 172 48 24 126 70 173 103 47 33 96 67 110 75 46 30 106 93 133 140 53
92 85 160 91 192 3 17 8 43 11 57 6 31 7 176 1 210 -2 14 -7 52 -11 85 -8 83
-14 124 -21 165 -10 57 -12 176 -3 232 5 29 11 68 14 86 8 51 44 163 67 207
52 101 64 119 117 174 31 31 74 70 96 86 22 16 42 31 45 34 18 20 122 80 155
89 80 24 151 38 198 41 9 1 17 5 17 10 0 7 -45 11 -53 5z"/>
<path d="M3240 4562 c0 -5 35 -14 78 -22 42 -7 82 -14 87 -16 142 -33 361
-206 438 -348 37 -67 85 -201 94 -261 2 -16 8 -55 12 -85 9 -60 8 -187 -2
-235 -4 -16 -9 -48 -12 -70 -3 -22 -8 -65 -12 -95 -9 -68 -10 -271 -2 -326 7
-50 99 -227 142 -274 58 -64 250 -196 375 -259 132 -66 134 -112 5 -176 -97
-49 -292 -179 -354 -237 -62 -58 -139 -193 -164 -287 -15 -56 -15 -267 -1
-351 42 -245 41 -388 -5 -545 -53 -181 -117 -281 -249 -387 -97 -77 -189 -134
-232 -142 -7 -1 -38 -8 -68 -14 -65 -14 -100 -20 -118 -21 -7 -1 -10 -6 -7
-11 4 -6 9 -9 13 -6 4 2 34 6 67 10 202 21 448 119 566 227 15 13 55 49 89 79
74 66 129 143 182 256 45 97 52 136 52 294 1 120 -6 200 -29 345 -40 250 -21
375 84 571 56 104 87 132 256 230 95 55 104 58 170 59 54 1 70 4 70 16 0 10
-14 14 -57 15 -31 1 -67 4 -81 8 -31 7 -235 132 -280 171 -65 56 -164 267
-174 370 -10 99 -6 220 12 313 1 9 6 42 10 72 4 30 9 64 12 75 11 50 10 287
-1 355 -14 82 -70 207 -130 288 -57 77 -198 203 -292 259 -117 71 -304 135
-432 149 -26 2 -62 7 -79 9 -18 3 -33 1 -33 -3z"/>
<path d="M2374 4056 c-2 -6 -5 -147 -6 -313 l-3 -302 -170 73 c-94 41 -193 83
-220 95 -28 12 -59 26 -70 31 -11 4 -41 17 -67 29 -26 12 -52 21 -57 21 -12 0
-94 -204 -83 -208 5 -1 63 -29 128 -61 66 -31 197 -95 292 -141 94 -46 172
-86 172 -89 0 -4 -51 -32 -112 -64 -62 -32 -121 -62 -130 -67 -27 -15 -43 -23
-163 -85 -110 -57 -217 -115 -224 -121 -4 -4 98 -172 110 -179 5 -4 24 2 42
13 17 10 86 47 152 82 66 34 147 77 180 95 155 84 215 114 217 107 2 -10 6
-249 7 -433 l1 -156 119 -1 c83 0 121 3 123 11 2 7 3 141 3 299 0 159 1 288 3
288 2 0 40 -20 85 -43 363 -193 508 -269 512 -266 2 2 28 44 58 93 l55 90 -71
37 c-40 20 -119 61 -177 92 -58 31 -169 89 -247 129 -79 40 -143 75 -143 78 0
3 46 27 103 54 258 125 492 239 496 242 2 2 -15 50 -39 107 l-42 104 -49 -23
c-27 -13 -51 -24 -55 -24 -3 0 -29 -11 -57 -24 -29 -13 -113 -49 -187 -80 -74
-32 -149 -64 -165 -71 -17 -8 -43 -18 -58 -24 l-27 -11 0 273 c1 149 1 290 1
313 l-1 41 -116 0 c-74 0 -117 -4 -120 -11z"/>
</g>
</svg>
